<svg xmlns="http://www.w3.org/2000/svg" viewBox="0 0 960 540" role="img" aria-labelledby="title desc"><title id="title">Markdown formatting: headings, emphasis, links, lists, and an image</title><desc id="desc">Markdown formatting: headings, emphasis, links, lists, and an image shown as a clean diagram of page content.</desc><rect x="0" y="0" width="960" height="540" rx="0" fill="#F4F6F3" /><circle cx="850" cy="50" r="170" fill="#C3D5C7" opacity=".35"/><circle cx="65" cy="500" r="150" fill="#DDBD70" opacity=".18"/><rect x="240" y="52" width="480" height="434" rx="16" fill="#FFFFFF" stroke="#C3D5C7" stroke-width="2"/><rect x="240" y="52" width="480" height="42" rx="14" fill="#354F52" /><rect x="240" y="74" width="480" height="20" rx="0" fill="#354F52" /><circle cx="262" cy="73" r="5" fill="#D8836D"/><circle cx="282" cy="73" r="5" fill="#DDBD70"/><circle cx="302" cy="73" r="5" fill="#C3D5C7"/><text x="272" y="140" fill="#354F52" font-family="Arial, Helvetica, sans-serif" font-size="36" font-weight="600">Heading</text><rect x="272" y="162" width="355" height="6" rx="4" fill="#C3D5C7" /><text x="272" y="215" fill="#354F52" font-family="Arial, Helvetica, sans-serif" font-size="30" font-weight="600">B</text><text x="322" y="215" fill="#9D8DAD" font-family="Arial, Helvetica, sans-serif" font-size="25" font-weight="600">Italic</text><text x="431" y="215" fill="#7597B0" font-family="Arial, Helvetica, sans-serif" font-size="25" font-weight="600">Link</text><rect x="430" y="222" width="55" height="2" rx="4" fill="#7597B0" /><circle cx="281" cy="257" r="4" fill="#D8836D"/><rect x="300" y="253" width="220" height="7" rx="4" fill="#C3D5C7" /><circle cx="281" cy="282" r="4" fill="#D8836D"/><rect x="300" y="278" width="285" height="7" rx="4" fill="#C3D5C7" /><circle cx="281" cy="307" r="4" fill="#D8836D"/><rect x="300" y="303" width="190" height="7" rx="4" fill="#C3D5C7" /><rect x="272" y="347" width="125" height="97" rx="10" fill="#7597B0" /><path d="m282 432 32-43 25 28 22-35 27 50" fill="#C3D5C7"/><rect x="420" y="352" width="225" height="9" rx="4" fill="#354F52" /><rect x="420" y="379" width="240" height="8" rx="4" fill="#C3D5C7" /><rect x="420" y="402" width="190" height="8" rx="4" fill="#C3D5C7" /><rect x="420" y="425" width="216" height="8" rx="4" fill="#C3D5C7" /></svg>
